<svg width="32" height="32" viewBox="0 0 32 32" fill="none" xmlns="http://www.w3.org/2000/svg">
<rect width="32" height="32" fill="white"/>
<path d="M25.6726 20.3975C23.2126 20.3975 21.2926 18.4775 21.2926 16.0415C21.2926 13.5815 23.2126 11.6616 25.6726 11.6616C28.1325 11.6616 30.0405 13.5815 30.0405 16.0415C30.0405 18.4775 28.1325 20.3975 25.6726 20.3975ZM23.1286 16.0415C23.1286 17.5415 24.2446 18.7055 25.6726 18.7055C27.0886 18.7055 28.2045 17.5415 28.2045 16.0415C28.2045 14.5295 27.0886 13.3536 25.6726 13.3536C24.2446 13.3536 23.1286 14.5295 23.1286 16.0415Z" fill="#131313"/>
<path d="M15.118 20.2208V11.8209H17.734C19.366 11.8209 20.53 12.8529 20.53 14.4249C20.53 16.0088 19.378 17.2088 17.77 17.2088H16.894V20.2208H15.118ZM16.894 15.5528H17.65C18.322 15.5528 18.742 15.0969 18.742 14.4969C18.742 13.9089 18.322 13.4889 17.65 13.4889H16.894V15.5528Z" fill="#131313"/>
<path d="M7.56604 20.2208L12.5473 11.8209H14.3593L9.37802 20.2208H7.56604Z" fill="#131313"/>
<path d="M11.4437 18.7382H12.9263V20.2208H11.4437V18.7382Z" fill="#131313"/>
<path fill-rule="evenodd" clip-rule="evenodd" d="M7.65877 17.1869C7.65875 17.786 7.54807 18.3157 7.3178 18.7671L7.31889 18.7682C7.05898 19.2551 6.69051 19.6594 6.19388 19.9122C5.77616 20.1197 5.30253 20.2207 4.77895 20.2207C4.26884 20.2207 3.72864 20.123 3.28202 19.8651C2.84886 19.6262 2.51141 19.2736 2.2705 18.8159C1.95717 18.2206 1.91016 17.5627 1.91016 16.9037H3.66498C3.66498 17.288 3.65937 17.6816 3.80977 18.0431C3.90963 18.2656 4.03848 18.4128 4.18857 18.5039C4.34682 18.5999 4.54044 18.6529 4.77895 18.6529C5.00068 18.6529 5.21989 18.6067 5.40805 18.4862C5.54532 18.3945 5.66105 18.2526 5.74812 18.0437C5.84096 17.8208 5.89269 17.5308 5.89273 17.1652V11.8209H7.65877V17.1869Z" fill="#131313"/>
</svg>
