<svg width="111" height="100" viewBox="0 0 111 100" fill="none" xmlns="http://www.w3.org/2000/svg">
<path d="M64.1387 52.3649C64.1387 51.0881 65.1033 50.0823 66.3196 50.0823C67.5358 50.0823 68.4261 51.0607 68.4261 52.3649C68.4261 53.6691 67.5214 54.676 66.3196 54.676C65.1177 54.676 64.1387 53.6553 64.1387 52.3649ZM59.9544 55.9242H61.6608V48.8341H59.9544V55.9242ZM59.6872 46.4658C59.6872 47.075 60.2061 47.5723 60.8148 47.5723C61.4235 47.5723 61.928 47.0762 61.928 46.4658C61.928 45.8989 61.4235 45.4165 60.8148 45.4165C60.2061 45.4165 59.6872 45.8989 59.6872 46.4658ZM52.995 52.35C52.995 51.0733 53.9739 50.0812 55.2357 50.0812C56.4975 50.0812 57.4764 51.0733 57.4764 52.35C57.4764 53.6268 56.4819 54.676 55.2357 54.676C53.9895 54.676 52.995 53.6405 52.995 52.35ZM51.2587 52.35C51.2587 54.4772 53.0093 56.1505 55.2357 56.1505C57.4621 56.1505 59.2127 54.4772 59.2127 52.35C59.2127 50.2229 57.492 48.6067 55.2357 48.6067C52.9794 48.6067 51.2587 50.2377 51.2587 52.35ZM46.6442 55.9242H48.3505V52.2094C48.3505 50.735 49.1665 50.0823 50.5313 50.0823C50.7842 50.0823 50.9759 50.096 51.1544 50.1394V48.7073C50.9759 48.6501 50.6644 48.6078 50.324 48.6078C48.009 48.6078 46.6442 49.9977 46.6442 52.2094V55.9242ZM39.8046 52.3649C39.8046 51.0881 40.7691 50.0823 41.9854 50.0823C43.2016 50.0823 44.0919 51.0607 44.0919 52.3649C44.0919 53.6691 43.1872 54.676 41.9854 54.676C40.7835 54.676 39.8046 53.6553 39.8046 52.3649ZM38.0683 52.3649C38.0683 54.4212 39.789 56.1505 41.8224 56.1505C42.6684 56.1505 43.4401 55.8248 43.9002 55.2853H43.9745V55.9231H45.6808V44.8496H43.9745V49.4159H43.9002C43.4556 48.905 42.684 48.6078 41.8224 48.6078C39.7746 48.6078 38.0683 50.3235 38.0683 52.366V52.3649ZM30.59 55.9242H32.2963V51.7694C32.2963 50.7772 32.9937 50.0823 33.9583 50.0823C34.9229 50.0823 35.6202 50.7772 35.6202 51.7694V55.9242H37.3266V51.7694C37.3266 50.0389 35.8874 48.6078 33.9583 48.6078C32.0291 48.6078 30.59 50.04 30.59 51.7694V55.9242ZM22.7558 51.6699L24.5963 46.6361H24.6849L26.5243 51.6699H22.7558ZM19.2832 55.9242H21.2124L22.177 53.2861H27.103L28.0676 55.9242H29.9968L25.7083 44.8496H23.5718L19.2832 55.9242ZM66.1566 56.1505C67.0026 56.1505 67.7743 55.8248 68.2344 55.2853H68.3087V55.9231H70.015V44.8496H68.3087V49.4159H68.2344C67.7898 48.905 67.0182 48.6078 66.1566 48.6078C64.1088 48.6078 62.4025 50.3235 62.4025 52.366C62.4025 54.4086 64.1232 56.1517 66.1566 56.1517V56.1505Z" fill="white"/>
<path d="M87.7532 45.7244C87.8557 45.7012 87.962 45.6932 88.0676 45.7009C88.2057 45.7114 88.3393 45.7484 88.4585 45.8092C88.5894 45.876 88.6988 45.97 88.7768 46.0825C88.8439 46.1793 88.8863 46.2873 88.9012 46.3993C88.9161 46.5113 88.9031 46.6248 88.8631 46.7322C88.8433 46.7851 88.8166 46.8366 88.7831 46.8865C88.6418 47.097 88.5003 47.3075 88.3586 47.5178L87.7672 48.3965C87.5655 48.6965 87.3638 48.9965 87.1621 49.2963C87.1584 49.302 87.1546 49.3075 87.1509 49.3132C87.7928 49.658 88.3876 50.0642 88.9238 50.5239C89.3269 50.869 89.6953 51.2429 90.0251 51.6415C90.2952 51.9683 90.5389 52.3108 90.7543 52.6665C91.2429 53.4739 91.5799 54.3429 91.7528 55.2412C91.7595 55.2758 91.766 55.3108 91.7723 55.346L91.7707 55.3469C91.7931 55.4729 91.8123 55.5993 91.8282 55.726H71.8474C71.8677 55.5641 71.8934 55.4027 71.9243 55.2421C72.0972 54.3438 72.4342 53.4748 72.9228 52.6673C73.1377 52.3115 73.3813 51.969 73.6519 51.6424C73.9818 51.2439 74.3502 50.87 74.7531 50.5248C75.2942 50.061 75.8947 49.6516 76.5429 49.3044C76.5415 49.3019 76.5396 49.2994 76.5383 49.2969C76.3368 48.9968 76.1347 48.6972 75.9331 48.397L74.9172 46.887C74.7951 46.7053 74.7617 46.4894 74.8242 46.2865C74.8854 46.0866 75.0353 45.9153 75.2418 45.8096C75.3609 45.7485 75.4946 45.7114 75.6327 45.7014C75.8063 45.6884 75.9807 45.7183 76.1352 45.7876C76.2898 45.8569 76.4183 45.9626 76.5056 46.0925C76.6469 46.303 76.7884 46.5134 76.9301 46.7237L77.5215 47.6026C77.7233 47.9024 77.925 48.2023 78.1267 48.5023C78.1472 48.5328 78.1678 48.5635 78.1885 48.5942C78.3023 48.5556 78.4173 48.5189 78.5335 48.4839C79.5633 48.1753 80.6448 48.0135 81.7352 48.005C81.7696 48.0047 81.8041 48.0045 81.8385 48.0046C83.0988 48.0046 84.3047 48.2043 85.416 48.5695C85.4466 48.5795 85.4768 48.59 85.5075 48.6005C85.5295 48.5674 85.5516 48.5345 85.5736 48.5019C85.7751 48.2017 85.9772 47.9022 86.1788 47.6021L86.7702 46.7234C86.9115 46.513 87.053 46.3026 87.1947 46.0922C87.2551 46.0023 87.3356 45.9235 87.4314 45.8604C87.5273 45.7973 87.6366 45.751 87.7532 45.7244ZM77.8461 51.8069C77.4463 51.5776 76.8562 51.7364 76.5282 52.1615C76.2002 52.5866 76.2581 53.1171 76.6578 53.3464C77.0576 53.5758 77.6476 53.4171 77.9758 52.9919C78.3039 52.5669 78.2457 52.0362 77.8461 51.8069ZM87.1649 52.1599C86.8367 51.735 86.2467 51.5763 85.8469 51.8057C85.4472 52.0349 85.3891 52.5654 85.7172 52.9906C86.0452 53.4156 86.6352 53.5743 87.035 53.345C87.4349 53.1157 87.493 52.5852 87.1649 52.1599Z" fill="white"/>
</svg>
