<svg width="111" height="100" viewBox="0 0 111 100" fill="none" xmlns="http://www.w3.org/2000/svg">
<path d="M41.0603 58.3897C41.0603 58.3897 41.6452 58.7883 42.2158 58.7883C42.7865 58.7883 43.2953 58.3703 43.2953 58.3703V56.3387C43.2953 56.3387 42.7817 56.7032 42.2158 56.7032C41.65 56.7032 41.0603 56.3046 41.0603 56.3046L35.1828 52.7857L35.7249 55.1916L41.0603 58.38V58.3897Z" fill="white"/>
<path d="M25.1969 52.115C25.1969 52.115 24.631 51.7165 24.0366 51.7165C23.4422 51.7165 22.9619 52.1345 22.9619 52.1345V54.1661C22.9619 54.1661 23.4469 53.8016 24.0366 53.8016C24.6262 53.8016 25.1969 54.205 25.1969 54.205L30.0472 57.1066L30.4609 55.2742L25.1921 52.1247L25.1969 52.115Z" fill="white"/>
<path d="M41.0603 55.7311C41.0603 55.7311 41.6452 56.1297 42.2158 56.1297C42.7865 56.1297 43.2953 55.7117 43.2953 55.7117V53.6801C43.2953 53.6801 42.7817 54.0494 42.2158 54.0494C41.65 54.0494 41.0603 53.6509 41.0603 53.6509L34.4886 49.7189L35.0307 52.1296L41.0603 55.7311Z" fill="white"/>
<path d="M25.1969 49.4613C25.1969 49.4613 24.631 49.0627 24.0366 49.0627C23.4422 49.0627 22.9619 49.4807 22.9619 49.4807V51.5123C22.9619 51.5123 23.4469 51.1478 24.0366 51.1478C24.6262 51.1478 25.1969 51.5464 25.1969 51.5464L30.5798 54.7639L30.9935 52.9316L25.1969 49.4661V49.4613Z" fill="white"/>
<path d="M41.0603 53.0725C41.0603 53.0725 41.6452 53.4711 42.2158 53.4711C42.7865 53.4711 43.2953 53.0531 43.2953 53.0531V51.0214C43.2953 51.0214 42.7817 51.386 42.2158 51.386C41.65 51.386 41.0603 50.9874 41.0603 50.9874L33.7943 46.6423L34.3364 49.053L41.0603 53.0725Z" fill="white"/>
<path d="M25.1969 46.8027C25.1969 46.8027 24.631 46.4041 24.0366 46.4041C23.4422 46.4041 22.9619 46.8221 22.9619 46.8221V48.8537C22.9619 48.8537 23.4469 48.4892 24.0366 48.4892C24.6262 48.4892 25.1969 48.8878 25.1969 48.8878L31.1076 52.4212L31.5213 50.5889L25.1969 46.8075V46.8027Z" fill="white"/>
<path d="M33.6469 45.9813L41.0603 50.4139C41.0603 50.4139 41.6452 50.8125 42.2158 50.8125C42.7865 50.8125 43.2953 50.3945 43.2953 50.3945V48.3628C43.2953 48.3628 42.7817 48.7322 42.2158 48.7322C41.65 48.7322 41.0603 48.3337 41.0603 48.3337L35.3208 44.9023L34.9261 43.3616C34.9261 43.2984 34.9831 43.2643 35.0069 43.2643L35.977 42.9533C36.1054 42.9533 36.1814 43.0699 36.1814 43.1671L36.2338 43.2741C36.267 43.2935 36.424 43.2449 36.424 43.2157V42.6082C36.424 42.2097 36.1149 41.85 35.6869 41.85H34.7168C34.7168 41.85 34.5742 41.5098 34.1605 41.5098H32.3202C31.8304 41.5098 31.7163 41.9812 31.7163 41.9812L30.4371 47.279L25.1969 44.1441C25.1969 44.1441 24.631 43.7455 24.0366 43.7455C23.4422 43.7455 22.9619 44.1635 22.9619 44.1635V46.1951C22.9619 46.1951 23.4469 45.8306 24.0366 45.8306C24.6262 45.8306 25.1969 46.2292 25.1969 46.2292L31.6354 50.0785L33.1001 43.5851L33.6422 45.9813H33.6469Z" fill="white"/>
<path d="M80.7627 44.3949H78.46L78.824 45.3467L75.2431 55.133L71.5436 44.3862H69.2325L69.6049 45.338L65.7869 55.7733H67.8695L68.5383 53.7831H72.4833L73.1436 55.7733H77.0886L77.7574 53.7831H81.7024L82.3711 55.7733H84.6823L80.7542 44.3862L80.7627 44.3949ZM69.0462 52.2603L70.587 47.8041L71.9584 52.2603H69.0462ZM78.2822 52.2603L79.806 47.8041L81.1775 52.2603H78.2822Z" fill="white"/>
<path d="M65.4314 52.5977C65.4314 54.5792 63.8483 56.0156 61.6642 56.0242C59.37 56.0242 58.5996 55.6262 58.5996 55.6262L58.4049 53.4284C58.4049 53.4284 59.6832 54.3023 61.5541 54.3023C62.079 54.3023 63.2557 53.9216 63.2557 52.84C63.2557 51.7584 62.333 51.4902 62.1044 51.3604C61.6472 51.1094 61.1054 50.8672 60.6568 50.6335C59.8017 50.2096 58.5573 49.3962 58.5573 47.6656C58.5573 45.1736 60.7414 44.2564 62.4853 44.2564C63.8822 44.2564 65.1097 44.8881 65.1097 44.8881V46.9302C64.7203 46.6965 64.0769 45.961 62.4853 45.961C61.4017 45.961 60.6652 46.5494 60.6652 47.3714C60.6652 48.1415 61.2832 48.6347 61.8758 48.9203C62.4684 49.2145 62.8663 49.3962 63.552 49.7336C64.4155 50.1749 65.4314 51.0748 65.4314 52.5977ZM55.1456 51.6546C55.1456 52.5718 54.8493 54.2764 52.8176 54.2417C50.9636 54.1985 50.6165 52.4593 50.6165 51.3431V44.4122H48.5001V51.4556C48.5001 55.3839 50.8535 56.0415 52.8176 56.0415C55.7298 56.0415 57.0758 54.0773 57.0758 51.4209V44.4209H55.1541V51.6632L55.1456 51.6546Z" fill="white"/>
<path d="M88.8098 47.7818C87.9077 48.7934 86.3402 48.8378 85.3649 47.9434C84.3896 47.0491 84.4636 45.6624 85.4251 44.8381C86.3703 44.0277 87.8089 44.0652 88.709 44.944C89.4942 45.7109 89.5624 46.9387 88.8102 47.7822L88.8098 47.7818ZM88.4851 47.5403C89.0695 46.8797 89.0602 45.9581 88.4961 45.3093C87.7788 44.4838 86.4983 44.4219 85.6835 45.1448C84.9732 45.7748 84.8951 46.817 85.5299 47.5358C86.2951 48.4024 87.7045 48.4224 88.4851 47.5398V47.5403Z" fill="white"/>
<path d="M86.9795 46.7058C86.9474 46.6691 86.8039 46.6728 86.7751 46.6867L86.7665 47.4336L86.1565 47.4323V45.3574C86.6714 45.2262 87.3846 45.1399 87.7695 45.5178C87.9292 45.6746 87.9682 45.8888 87.8906 46.1063C87.8365 46.2582 87.6732 46.3861 87.4736 46.4932L88.3778 47.4116L87.6073 47.4221L86.9795 46.7054V46.7058ZM87.1197 46.2924C87.3005 46.1719 87.3379 45.8986 87.2107 45.7589C87.1087 45.6469 86.9303 45.6363 86.7763 45.638L86.7734 46.3173C86.8807 46.3323 87.0368 46.3478 87.1201 46.2924H87.1197Z" fill="white"/>
</svg>
